<?xml version="1.0" encoding="utf-8"?>
<svg version="1.1" id="Слой_1" xmlns="http://www.w3.org/2000/svg" x="0px" y="0px"
	viewBox="0 0 90 90">
	<path
		d="M45,9C25.1,9,9,25.1,9,45c0,16.9,11.6,31,27.3,34.9c-0.2-0.5-0.3-1.1-0.3-1.8V72c-1.5,0-3.9,0-4.5,0
		c-2.5,0-4.7-1.1-5.7-3c-1.2-2.2-1.4-5.5-4.3-7.6c-0.9-0.7-0.2-1.5,0.8-1.4c1.8,0.5,3.4,1.8,4.8,3.7c1.4,1.9,2.1,2.3,4.8,2.3
		c1.3,0,3.2-0.1,5.1-0.4c1-2.5,2.7-4.8,4.8-5.9C29.7,58.5,24,52.6,24,44.5c0-3.5,1.5-6.9,4-9.7c-0.8-2.8-1.9-8.6,0.3-10.8
		c5.4,0,8.7,3.5,9.4,4.4c2.7-0.9,5.6-1.4,8.7-1.4c3.1,0,6.1,0.5,8.8,1.4c0.8-0.9,4-4.4,9.4-4.4c2.2,2.2,1.1,8,0.3,10.8
		c2.5,2.8,4,6.2,4,9.7c0,8.1-5.7,14.1-17.7,15.3c3.3,1.7,5.7,6.6,5.7,10.2v8.2c0,0.3-0.1,0.5-0.1,0.8C70.9,74,81,60.7,81,45
		C81,25.1,64.9,9,45,9z" />
</svg>