<?xml version="1.0" encoding="UTF-8"?>
<svg id="_Слой_1" data-name="Слой 1" xmlns="http://www.w3.org/2000/svg" viewBox="0 0 476.4 173.3">
  <rect x="101.1" y="75.42" width="173.2" height="1.95"/>
  <rect x="101.1" y="51.31" width="173.2" height="1.61"/>
  <rect x="202.1" y="92.39" width="72.2" height="2.09"/>
  <rect x="101.1" y="67.92" width="173.2" height="2.01"/>
  <rect x="101.1" y="58.83" width="173.2" height="1.8"/>
  <rect x="303.1" y="108.87" width="72.2" height="2.55"/>
  <rect x="303.1" y="92.39" width="72.2" height="2.09"/>
  <rect x="303.1" y="117.95" width="72.2" height="2.48"/>
  <rect x="303.1" y="101.27" width="72.2" height="2.42"/>
  <rect y="42.27" width="72.2" height="1.36"/>
  <rect y="67.92" width="72.2" height="2.01"/>
  <rect x="303.1" y="125.75" width="72.2" height="2.39"/>
  <rect y="58.83" width="72.2" height="1.8"/>
  <rect y="25.81" width="72.2" height=".65"/>
  <rect x="101.1" y="42.27" width="173.2" height="1.36"/>
  <rect y="51.31" width="72.2" height="1.61"/>
  <rect x="101.1" y="25.81" width="173.2" height=".65"/>
  <rect x="101.1" y="34.49" width="173.2" height=".81"/>
  <rect y="18.06" width="72.2" height=".65"/>
  <rect x="101.1" y="18.06" width="173.2" height=".65"/>
  <rect y="34.49" width="72.2" height=".81"/>
  <rect x="202.1" y="101.27" width="72.2" height="2.42"/>
  <rect x="202.1" y="142.57" width="72.2" height="3.55"/>
  <rect x="202.1" y="125.75" width="72.2" height="2.39"/>
  <rect x="202.1" y="108.87" width="72.2" height="2.55"/>
  <rect x="202.1" y="117.95" width="72.2" height="2.48"/>
  <rect x="202.1" y="134.84" width="72.2" height="2.37"/>
  <rect y="9.01" width="72.2" height=".65"/>
  <rect x="101.1" y="9.01" width="173.2" height=".65"/>
  <rect x="303.1" y="134.84" width="72.2" height="2.37"/>
  <rect x="101.1" y="92.39" width="72.1" height="2.09"/>
  <rect x="101.1" y="101.27" width="72.1" height="2.42"/>
  <rect x="303.1" y="150.46" width="72.2" height="3.9"/>
  <rect x="101.1" y="150.46" width="72.1" height="3.9"/>
  <rect x="202.1" y="150.46" width="72.2" height="3.9"/>
  <rect x="303.1" y="142.57" width="72.2" height="3.55"/>
  <rect x="101.1" y="142.57" width="72.1" height="3.55"/>
  <rect x="101.1" y="117.95" width="72.1" height="2.48"/>
  <rect x="101.1" y="125.75" width="72.1" height="2.39"/>
  <rect x="101.1" y="134.84" width="72.1" height="2.37"/>
  <rect x="101.1" y="108.87" width="72.1" height="2.55"/>
  <rect x="101.1" y="84.78" width="173.2" height="1.78"/>
  <rect x="303.1" y="51.31" width="173.3" height="1.61"/>
  <rect x="303.1" y="42.27" width="173.3" height="1.36"/>
  <rect x="303.1" y="58.83" width="173.3" height="1.8"/>
  <rect x="303.1" y="25.81" width="173.3" height=".65"/>
  <rect x="303.1" y="34.49" width="173.3" height=".81"/>
  <rect x="404.2" y="92.39" width="72.2" height="2.09"/>
  <rect x="303.1" y="84.78" width="173.3" height="1.78"/>
  <rect x="303.1" y="18.06" width="173.3" height=".65"/>
  <rect x="303.1" y="67.92" width="173.3" height="2.01"/>
  <rect x="303.1" y="75.42" width="173.3" height="1.95"/>
  <path d="M271.51,.61c-.72-.38-1.53-.61-2.41-.61H106.3c-.88,0-1.69,.23-2.41,.61h167.63Z"/>
  <path d="M202.1,166.85v1.15c0,2.9,2.3,5.2,5.2,5.2h61.8c2.9,0,5.2-2.3,5.2-5.2v-1.15h-72.2Z"/>
  <rect x="303.1" y="9.01" width="173.3" height=".65"/>
  <path d="M404.2,166.85v1.15c0,2.9,2.3,5.2,5.2,5.2h61.8c2.9,0,5.2-2.3,5.2-5.2v-1.15h-72.2Z"/>
  <path d="M101.1,166.85v1.15c0,2.9,2.3,5.2,5.2,5.2h61.7c2.9,0,5.2-2.3,5.2-5.2v-1.15H101.1Z"/>
  <path d="M303.1,166.85v1.15c0,2.9,2.3,5.2,5.2,5.2h61.8c2.9,0,5.2-2.3,5.2-5.2v-1.15h-72.2Z"/>
  <rect x="404.2" y="101.27" width="72.2" height="2.42"/>
  <path d="M473.58,.61c-.74-.38-1.57-.61-2.48-.61h-162.8c-.88,0-1.69,.23-2.41,.61h167.69Z"/>
  <rect y="75.42" width="72.2" height="1.95"/>
  <path d="M70.64,.61c-.56-.38-1.23-.61-1.94-.61H3.5c-.71,0-1.38,.23-1.94,.61H70.64Z"/>
  <path d="M0,166.85v2.95c0,1.9,1.6,3.5,3.5,3.5H68.7c1.9,0,3.5-1.6,3.5-3.5v-2.95H0Z"/>
  <rect y="125.75" width="72.2" height="2.39"/>
  <rect y="117.95" width="72.2" height="2.48"/>
  <rect y="134.84" width="72.2" height="2.37"/>
  <rect y="150.46" width="72.2" height="3.9"/>
  <rect y="142.57" width="72.2" height="3.55"/>
  <rect y="84.78" width="72.2" height="1.78"/>
  <rect y="108.87" width="72.2" height="2.55"/>
  <rect y="159.03" width="72.2" height="4.31"/>
  <rect y="92.39" width="72.2" height="2.09"/>
  <rect y="101.27" width="72.2" height="2.42"/>
  <rect x="404.2" y="117.95" width="72.2" height="2.48"/>
  <rect x="404.2" y="125.75" width="72.2" height="2.39"/>
  <rect x="404.2" y="134.84" width="72.2" height="2.37"/>
  <rect x="101.1" y="159.03" width="72.1" height="4.31"/>
  <rect x="404.2" y="108.87" width="72.2" height="2.55"/>
  <rect x="404.2" y="142.57" width="72.2" height="3.55"/>
  <rect x="303.1" y="159.03" width="72.2" height="4.31"/>
  <rect x="202.1" y="159.03" width="72.2" height="4.31"/>
  <rect x="404.2" y="159.03" width="72.2" height="4.31"/>
  <rect x="404.2" y="150.46" width="72.2" height="3.9"/>
</svg>