<?xml version="1.0" encoding="UTF-8"?>
<svg id="_Слой_1" data-name="Слой 1" xmlns="http://www.w3.org/2000/svg" viewBox="0 0 62.42 66.981">
  <defs>
    <style>
      .cls-1 {
        fill: #fff;
      }
    </style>
  </defs>
  <path class="cls-1" d="M22.291,36.091l-4.458-2.574v-5.149s4.459-2.574,4.459-2.574l4.458,2.574v5.149s-4.459,2.574-4.459,2.574Zm-17.833,0L0,33.518v-5.149s4.459-2.575,4.459-2.575l4.458,2.574v5.149s-4.459,2.575-4.459,2.575ZM13.377,10.349l-4.458-2.574V2.627S13.378,.052,13.378,.052l4.458,2.574V7.774s-4.459,2.575-4.459,2.575Zm8.917,5.149l-4.458-2.574V7.776s4.459-2.574,4.459-2.574l4.458,2.574v5.148s-4.459,2.575-4.459,2.575Zm-17.833,0L.002,12.925V7.776s4.459-2.575,4.459-2.575l4.458,2.574v5.149s-4.459,2.575-4.459,2.575Zm17.832,10.297l-4.458-2.574v-5.149s4.459-2.575,4.459-2.575l4.458,2.574v5.149s-4.459,2.575-4.459,2.575Zm-8.918,5.147l-4.458-2.574v-5.148s4.459-2.575,4.459-2.575l4.458,2.574v5.149s-4.459,2.574-4.459,2.574Zm.001-10.296l-4.458-2.574v-5.149s4.459-2.575,4.459-2.575l4.458,2.574v5.149s-4.459,2.575-4.459,2.575Zm-8.917,5.149L.001,23.221v-5.148s4.459-2.575,4.459-2.575l4.458,2.574v5.149s-4.459,2.574-4.459,2.574Z"/>
  <path class="cls-1" d="M49.042,30.943l-4.458-2.574v-5.149s4.459-2.574,4.459-2.574l4.458,2.574v5.149s-4.459,2.574-4.459,2.574Zm-17.833,0l-4.458-2.574v-5.149s4.459-2.575,4.459-2.575l4.458,2.574v5.149s-4.459,2.575-4.459,2.575ZM49.044,10.35l-4.458-2.574V2.628S49.045,.053,49.045,.053l4.458,2.574V7.775s-4.459,2.575-4.459,2.575Zm-17.833,0l-4.458-2.574V2.628S31.212,.053,31.212,.053l4.458,2.574V7.775s-4.459,2.575-4.459,2.575Zm17.832,10.297l-4.458-2.574v-5.149s4.459-2.575,4.459-2.575l4.458,2.574v5.149s-4.459,2.575-4.459,2.575Zm-8.918,5.147l-4.458-2.574v-5.148s4.459-2.575,4.459-2.575l4.458,2.574v5.149s-4.459,2.574-4.459,2.574Zm.001-10.296l-4.458-2.574V7.775s4.459-2.575,4.459-2.575l4.458,2.574v5.149s-4.459,2.575-4.459,2.575Zm-8.917,5.149l-4.458-2.574v-5.148s4.459-2.575,4.459-2.575l4.458,2.574v5.149s-4.459,2.574-4.459,2.574Zm8.918,46.335l-4.458-2.574v-5.149s4.459-2.574,4.459-2.574l4.458,2.574v5.148s-4.459,2.575-4.459,2.575Zm17.832,.002l-4.458-2.574v-5.149s4.459-2.574,4.459-2.574l4.458,2.574v5.148s-4.459,2.575-4.459,2.575Z"/>
  <path class="cls-1" d="M22.291,66.981l-4.458-2.574v-5.149s4.459-2.574,4.459-2.574l4.458,2.574v5.149s-4.459,2.574-4.459,2.574Zm-17.833,0L0,64.408v-5.149s4.459-2.575,4.459-2.575l4.458,2.574v5.149s-4.459,2.575-4.459,2.575Zm8.919-25.743l-4.458-2.574v-5.149s4.459-2.574,4.459-2.574l4.458,2.574v5.148s-4.459,2.575-4.459,2.575Zm8.917,5.149l-4.458-2.574v-5.149s4.459-2.574,4.459-2.574l4.458,2.574v5.148s-4.459,2.575-4.459,2.575Zm-17.833,0L.002,43.814v-5.149s4.459-2.575,4.459-2.575l4.458,2.574v5.149s-4.459,2.575-4.459,2.575Zm17.832,10.297l-4.458-2.574v-5.149s4.459-2.575,4.459-2.575l4.458,2.574v5.149s-4.459,2.575-4.459,2.575Zm-8.918,5.147l-4.458-2.574v-5.148s4.459-2.575,4.459-2.575l4.458,2.574v5.149s-4.459,2.574-4.459,2.574Zm.001-10.296l-4.458-2.574v-5.149s4.459-2.575,4.459-2.575l4.458,2.574v5.149s-4.459,2.575-4.459,2.575Zm-8.917,5.149L.001,54.111v-5.148s4.459-2.575,4.459-2.575l4.458,2.574v5.149s-4.459,2.574-4.459,2.574Z"/>
  <path class="cls-1" d="M49.04,61.834l-4.458-2.574v-5.149s4.459-2.574,4.459-2.574l4.458,2.574v5.149s-4.459,2.574-4.459,2.574Zm-17.833,0l-4.458-2.574v-5.149s4.459-2.575,4.459-2.575l4.458,2.574v5.149s-4.459,2.575-4.459,2.575Zm8.919-25.743l-4.458-2.574v-5.149s4.459-2.574,4.459-2.574l4.458,2.574v5.148s-4.459,2.575-4.459,2.575Zm8.917,5.149l-4.458-2.574v-5.149s4.459-2.574,4.459-2.574l4.458,2.574v5.148s-4.459,2.575-4.459,2.575Zm-17.833,0l-4.458-2.574v-5.149s4.459-2.575,4.459-2.575l4.458,2.574v5.149s-4.459,2.575-4.459,2.575Zm17.832,10.297l-4.458-2.574v-5.149s4.459-2.575,4.459-2.575l4.458,2.574v5.149s-4.459,2.575-4.459,2.575Zm-8.918,5.147l-4.458-2.574v-5.148s4.459-2.575,4.459-2.575l4.458,2.574v5.149s-4.459,2.574-4.459,2.574Zm.001-10.296l-4.458-2.574v-5.149s4.459-2.575,4.459-2.575l4.458,2.574v5.149s-4.459,2.575-4.459,2.575Zm-8.917,5.149l-4.458-2.574v-5.148s4.459-2.575,4.459-2.575l4.458,2.574v5.149s-4.459,2.574-4.459,2.574Z"/>
  <polygon class="cls-1" points="57.956 25.796 53.498 23.223 53.499 18.074 57.957 15.5 62.415 18.073 62.414 23.222 57.956 25.796"/>
  <polygon class="cls-1" points="57.957 15.5 53.499 12.926 53.5 7.778 57.958 5.203 62.416 7.776 62.415 12.925 57.957 15.5"/>
  <polygon class="cls-1" points="57.959 56.686 53.502 54.112 53.502 48.964 57.961 46.389 62.418 48.963 62.418 54.111 57.959 56.686"/>
  <polygon class="cls-1" points="57.962 36.093 53.504 33.519 53.505 28.371 57.963 25.796 62.421 28.37 62.42 33.518 57.962 36.093"/>
  <polygon class="cls-1" points="57.961 46.389 53.503 43.816 53.504 38.667 57.962 36.093 62.42 38.666 62.419 43.815 57.961 46.389"/>
  <polygon class="cls-1" points="13.377 72.131 8.919 69.557 8.92 64.409 13.378 61.834 17.836 64.408 17.835 69.556 13.377 72.131"/>
  <polygon class="cls-1" points="31.211 72.129 26.753 69.556 26.754 64.407 31.212 61.833 35.67 64.406 35.669 69.555 31.211 72.129"/>
  <polygon class="cls-1" points="49.045 72.131 44.588 69.557 44.588 64.409 49.047 61.834 53.504 64.408 53.504 69.556 49.045 72.131"/>
  <polygon class="cls-1" points="4.458 5.202 0 2.628 0 -2.52 4.459 -5.095 8.917 -2.522 8.916 2.627 4.458 5.202"/>
  <polygon class="cls-1" points="22.293 5.202 17.836 2.628 17.836 -2.52 22.294 -5.095 26.752 -2.522 26.752 2.627 22.293 5.202"/>
  <polygon class="cls-1" points="40.126 5.202 35.669 2.628 35.669 -2.52 40.128 -5.095 44.585 -2.522 44.585 2.627 40.126 5.202"/>
  <polygon class="cls-1" points="57.962 5.203 53.504 2.63 53.505 -2.519 57.963 -5.093 62.421 -2.52 62.42 2.629 57.962 5.203"/>
</svg>