<?xml version="1.0" encoding="utf-8"?>
<svg version="1.1" id="Слой_1" xmlns="http://www.w3.org/2000/svg" x="0px" y="0px"
	viewBox="0 0 96 96">
	<path class="st0" d="M11.7,47.2c25.1-11.1,57.7-24.5,62.2-26.4c11.8-4.9,15.4-3.9,13.6,6.9c-1.3,7.8-5,33.5-8,49.5
		c-1.8,9.5-5.7,10.6-12,6.5c-3-2-18.1-12-21.4-14.3c-3-2.1-7.1-4.7-1.9-9.8c1.8-1.8,13.9-13.3,23.3-22.3c1.2-1.2-0.3-3.1-1.7-2.2
		C53,43.5,35.4,55.2,33.2,56.8c-3.4,2.3-6.6,3.4-12.5,1.7c-4.4-1.3-8.7-2.8-10.4-3.4C3.9,52.9,5.4,50,11.7,47.2z"/>
</svg>