<?xml version="1.0" encoding="utf-8"?>
<svg version="1.1" xmlns="http://www.w3.org/2000/svg"
	xmlns:xlink="http://www.w3.org/1999/xlink" x="0px" y="0px"
	viewBox="0 0 48 48">
	<path
		d="M46.5,10c-1.7,0.7-3.4,1.3-5.2,1.5c1.9-1.1,3.4-3,4.1-5.1c-1.9,1.1-3.7,1.9-5.8,2.3c-1.9-1.9-4.3-3-6.9-3
		c-5.1,0-9.2,4.1-9.2,9.2c0,0.8,0,1.5,0.2,2.1C15.9,16.6,9.2,13,4.7,7.4c-0.9,1.3-1.3,3-1.3,4.7c0,3.2,1.7,6,4.1,7.7
		c-1.5-0.2-3-0.6-4.1-1.1c0,0,0,0,0,0.2c0,4.5,3.2,8.2,7.3,9c-0.7,0.2-1.5,0.4-2.4,0.4c-0.6,0-1.1,0-1.7-0.2
		c1.1,3.7,4.5,6.4,8.6,6.4c-3.2,2.4-7.1,3.9-11.4,3.9c-0.7,0-1.5,0-2.2-0.2c4.1,2.6,9,4.1,14.1,4.1c17.1,0,26.2-14.1,26.2-26.2
		c0-0.4,0-0.7,0-1.1C43.7,13.6,45.2,11.9,46.5,10" />
</svg>